<svg aria-hidden="true" style="position: absolute; width: 0; height: 0; overflow: hidden;" version="1.1" xmlns="http://www.w3.org/2000/svg" xmlns:xlink="http://www.w3.org/1999/xlink">
<defs>
<symbol id="icon-angle-left-b" viewBox="0 0 32 32">
<path d="M11.333 17.067l7.6 7.467c0.533 0.533 1.333 0.533 1.867 0s0.533-1.333 0-1.867l-6.533-6.667 6.533-6.667c0.533-0.533 0.533-1.333 0-1.867-0.267-0.267-0.533-0.4-0.933-0.4s-0.667 0.133-0.933 0.4l-7.6 7.467c-0.533 0.667-0.533 1.467 0 2.133 0-0.133 0-0.133 0 0z"></path>
</symbol>
<symbol id="icon-angle-right-b" viewBox="0 0 32 32">
<path d="M20.72 15.053l-7.547-7.533c-0.124-0.125-0.271-0.224-0.434-0.292s-0.337-0.103-0.513-0.103c-0.176 0-0.35 0.035-0.513 0.103s-0.31 0.167-0.434 0.292c-0.248 0.25-0.388 0.588-0.388 0.94s0.139 0.69 0.388 0.94l6.6 6.667-6.6 6.6c-0.248 0.25-0.388 0.588-0.388 0.94s0.139 0.69 0.388 0.94c0.123 0.126 0.271 0.226 0.433 0.295s0.337 0.104 0.513 0.105c0.176-0.001 0.351-0.036 0.513-0.105s0.31-0.169 0.433-0.295l7.547-7.533c0.135-0.125 0.243-0.276 0.317-0.445s0.112-0.351 0.112-0.535c0-0.184-0.038-0.366-0.112-0.535s-0.182-0.32-0.317-0.445z"></path>
</symbol>
<symbol id="icon-check" viewBox="0 0 32 32">
<path d="M24.947 9.613c-0.124-0.125-0.271-0.224-0.434-0.292s-0.337-0.103-0.513-0.103c-0.176 0-0.35 0.035-0.513 0.103s-0.31 0.167-0.434 0.292l-9.933 9.947-4.173-4.187c-0.129-0.124-0.281-0.222-0.447-0.288s-0.344-0.098-0.523-0.095c-0.179 0.003-0.355 0.041-0.52 0.113s-0.313 0.174-0.437 0.303c-0.124 0.129-0.222 0.281-0.288 0.447s-0.098 0.344-0.095 0.523 0.041 0.355 0.113 0.52c0.071 0.164 0.174 0.313 0.303 0.437l5.12 5.12c0.124 0.125 0.271 0.224 0.434 0.292s0.337 0.103 0.513 0.103c0.176 0 0.35-0.035 0.513-0.103s0.31-0.167 0.434-0.292l10.88-10.88c0.135-0.125 0.243-0.276 0.317-0.445s0.112-0.351 0.112-0.535c0-0.184-0.038-0.366-0.112-0.535s-0.182-0.32-0.317-0.445z"></path>
</symbol>
<symbol id="icon-email" viewBox="0 0 32 32">
<path d="M25.333 5.333h-18.667c-1.061 0-2.078 0.421-2.828 1.172s-1.172 1.768-1.172 2.828v13.333c0 1.061 0.421 2.078 1.172 2.828s1.768 1.172 2.828 1.172h18.667c1.061 0 2.078-0.421 2.828-1.172s1.172-1.768 1.172-2.828v-13.333c0-1.061-0.421-2.078-1.172-2.828s-1.768-1.172-2.828-1.172zM6.667 8h18.667c0.354 0 0.693 0.14 0.943 0.391s0.391 0.589 0.391 0.943l-10.667 6.507-10.667-6.507c0-0.354 0.14-0.693 0.391-0.943s0.589-0.391 0.943-0.391zM26.667 22.667c0 0.354-0.141 0.693-0.391 0.943s-0.589 0.391-0.943 0.391h-18.667c-0.354 0-0.693-0.141-0.943-0.391s-0.391-0.589-0.391-0.943v-10.293l9.973 6.093c0.203 0.117 0.433 0.179 0.667 0.179s0.464-0.062 0.667-0.179l10.027-6.093v10.293z"></path>
</symbol>
<symbol id="icon-eye-slash" viewBox="0 0 32 32">
<path d="M14.587 8.107c0.468-0.072 0.94-0.107 1.413-0.107 4.24 0 8.227 3.053 10.547 8-0.355 0.753-0.755 1.483-1.2 2.187-0.141 0.219-0.215 0.473-0.213 0.733 0.003 0.291 0.101 0.573 0.279 0.803s0.427 0.395 0.708 0.471c0.281 0.075 0.579 0.057 0.849-0.053s0.496-0.305 0.644-0.555c0.621-0.976 1.161-2.002 1.613-3.067 0.072-0.166 0.109-0.345 0.109-0.527s-0.037-0.36-0.109-0.527c-2.693-6.253-7.76-10.133-13.227-10.133-0.626-0.003-1.251 0.050-1.867 0.16-0.175 0.030-0.343 0.094-0.493 0.188s-0.281 0.218-0.383 0.363c-0.103 0.145-0.176 0.309-0.216 0.482s-0.045 0.352-0.015 0.527c0.030 0.175 0.094 0.343 0.188 0.493s0.218 0.281 0.363 0.383c0.145 0.103 0.309 0.176 0.482 0.215s0.352 0.045 0.527 0.015v-0.053zM4.947 3.053c-0.124-0.124-0.272-0.223-0.434-0.29s-0.337-0.102-0.512-0.102c-0.176 0-0.35 0.035-0.512 0.102s-0.31 0.166-0.434 0.29c-0.251 0.251-0.392 0.592-0.392 0.947s0.141 0.696 0.392 0.947l4.133 4.12c-1.886 1.815-3.387 3.992-4.413 6.4-0.073 0.168-0.111 0.35-0.111 0.533s0.038 0.365 0.111 0.533c2.693 6.253 7.76 10.133 13.227 10.133 2.396-0.017 4.736-0.73 6.733-2.053l4.32 4.333c0.124 0.125 0.271 0.224 0.434 0.292s0.337 0.103 0.513 0.103c0.176 0 0.35-0.035 0.513-0.103s0.31-0.167 0.434-0.292c0.125-0.124 0.224-0.271 0.292-0.434s0.103-0.337 0.103-0.513c0-0.176-0.035-0.35-0.103-0.513s-0.167-0.31-0.292-0.434l-24-24zM13.427 15.307l3.267 3.267c-0.225 0.065-0.459 0.096-0.693 0.093-0.707 0-1.385-0.281-1.886-0.781s-0.781-1.178-0.781-1.886c-0.003-0.234 0.029-0.468 0.093-0.693zM16 24c-4.24 0-8.227-3.053-10.533-8 0.861-1.902 2.084-3.618 3.6-5.053l2.36 2.387c-0.554 1.012-0.766 2.176-0.602 3.318s0.693 2.2 1.508 3.016c0.816 0.816 1.874 1.345 3.016 1.508s2.306-0.048 3.318-0.602l2.12 2.093c-1.452 0.855-3.102 1.314-4.787 1.333z"></path>
</symbol>
<symbol id="icon-lock" viewBox="0 0 32 32">
<path d="M16 17.333c-0.354 0-0.693 0.141-0.943 0.391s-0.391 0.589-0.391 0.943v4c0 0.354 0.141 0.693 0.391 0.943s0.589 0.391 0.943 0.391c0.354 0 0.693-0.141 0.943-0.391s0.391-0.589 0.391-0.943v-4c0-0.354-0.141-0.693-0.391-0.943s-0.589-0.391-0.943-0.391zM22.667 12v-2.667c0-1.768-0.702-3.464-1.953-4.714s-2.946-1.953-4.714-1.953-3.464 0.702-4.714 1.953c-1.25 1.25-1.953 2.946-1.953 4.714v2.667c-1.061 0-2.078 0.421-2.828 1.172s-1.172 1.768-1.172 2.828v9.333c0 1.061 0.421 2.078 1.172 2.828s1.768 1.172 2.828 1.172h13.333c1.061 0 2.078-0.421 2.828-1.172s1.172-1.768 1.172-2.828v-9.333c0-1.061-0.421-2.078-1.172-2.828s-1.768-1.172-2.828-1.172zM12 9.333c0-1.061 0.421-2.078 1.172-2.828s1.768-1.172 2.828-1.172c1.061 0 2.078 0.421 2.828 1.172s1.172 1.768 1.172 2.828v2.667h-8v-2.667zM24 25.333c0 0.354-0.141 0.693-0.391 0.943s-0.589 0.391-0.943 0.391h-13.333c-0.354 0-0.693-0.141-0.943-0.391s-0.391-0.589-0.391-0.943v-9.333c0-0.354 0.14-0.693 0.391-0.943s0.589-0.391 0.943-0.391h13.333c0.354 0 0.693 0.141 0.943 0.391s0.391 0.589 0.391 0.943v9.333z"></path>
</symbol>
<symbol id="icon-user" viewBox="0 0 32 32">
<path d="M16 2.667c-2.586 0.005-5.115 0.762-7.278 2.178s-3.868 3.432-4.907 5.8c-1.039 2.368-1.366 4.988-0.943 7.539s1.58 4.924 3.328 6.83c1.249 1.353 2.764 2.433 4.451 3.172s3.508 1.12 5.349 1.12c1.841 0 3.663-0.381 5.349-1.12s3.202-1.819 4.451-3.172c1.748-1.906 2.905-4.279 3.328-6.83s0.096-5.17-0.943-7.539c-1.039-2.368-2.743-4.383-4.907-5.8s-4.692-2.173-7.278-2.178zM16 26.667c-2.762-0.004-5.415-1.080-7.4-3 0.603-1.467 1.628-2.722 2.946-3.605s2.868-1.355 4.454-1.355c1.586 0 3.137 0.472 4.454 1.355s2.343 2.138 2.946 3.605c-1.985 1.92-4.638 2.996-7.4 3zM13.333 13.333c0-0.527 0.156-1.043 0.449-1.482s0.709-0.78 1.197-0.982c0.487-0.202 1.023-0.255 1.541-0.152s0.993 0.357 1.365 0.73 0.627 0.848 0.73 1.365c0.103 0.517 0.050 1.053-0.152 1.541s-0.544 0.904-0.982 1.197c-0.439 0.293-0.954 0.449-1.482 0.449-0.707 0-1.385-0.281-1.886-0.781s-0.781-1.178-0.781-1.886zM25.213 21.333c-1.191-2.038-3.025-3.623-5.213-4.507 0.679-0.77 1.121-1.719 1.274-2.734s0.009-2.052-0.413-2.988-1.106-1.729-1.968-2.286c-0.862-0.557-1.867-0.853-2.893-0.853s-2.031 0.296-2.893 0.853-1.546 1.351-1.968 2.286c-0.422 0.935-0.566 1.973-0.413 2.988s0.595 1.964 1.274 2.734c-2.189 0.884-4.022 2.469-5.213 4.507-0.949-1.617-1.451-3.458-1.453-5.333 0-2.829 1.124-5.542 3.124-7.542s4.713-3.124 7.542-3.124c2.829 0 5.542 1.124 7.543 3.124s3.124 4.713 3.124 7.542c-0.002 1.875-0.504 3.716-1.453 5.333z"></path>
</symbol>
</defs>
</svg>
