<svg width="24" height="24" viewBox="0 0 24 24" fill="none" xmlns="http://www.w3.org/2000/svg">
<path d="M15.3256 4V4.5H15.8256H16.8147C17.4673 4.5 18.0943 4.76204 18.5574 5.23029C19.0207 5.69872 19.282 6.3352 19.282 7V19C19.282 19.6648 19.0207 20.3013 18.5574 20.7697C18.0943 21.238 17.4673 21.5 16.8147 21.5H6.92382C6.27124 21.5 5.64426 21.238 5.18112 20.7697C4.7178 20.3013 4.45654 19.6648 4.45654 19V7C4.45654 6.3352 4.7178 5.69872 5.18112 5.23029C5.64426 4.76204 6.27124 4.5 6.92382 4.5H7.91291H8.41291V4C8.41291 3.60042 8.56996 3.21829 8.84779 2.9374C9.12544 2.65669 9.50083 2.5 9.89109 2.5H13.8475C14.2377 2.5 14.6131 2.65669 14.8908 2.9374C15.1686 3.21829 15.3256 3.60042 15.3256 4ZM9.89109 3.5H9.39109V4V6V6.5H9.89109H13.8475H14.3475V6V5V4V3.5H13.8475H9.89109ZM8.41291 6V5.5H7.91291H6.92382C6.5271 5.5 6.14776 5.65938 5.86894 5.94128C5.59029 6.223 5.43472 6.60393 5.43472 7V19C5.43472 19.3961 5.59029 19.777 5.86894 20.0587L6.22442 19.7071L5.86894 20.0587C6.14776 20.3406 6.5271 20.5 6.92382 20.5H16.8147C17.2114 20.5 17.5908 20.3406 17.8696 20.0587C18.1482 19.777 18.3038 19.3961 18.3038 19V7C18.3038 6.60394 18.1482 6.223 17.8696 5.94128C17.5908 5.65938 17.2114 5.5 16.8147 5.5H15.8256H15.3256V6C15.3256 6.39958 15.1686 6.78171 14.8908 7.0626C14.6131 7.34331 14.2377 7.5 13.8475 7.5H9.89109C9.50083 7.5 9.12544 7.34331 8.84779 7.0626C8.56996 6.78171 8.41291 6.39958 8.41291 6Z" fill="white" stroke="#DCE0EC"/>
</svg>
