<svg width="24" height="24" viewBox="0 0 24 24" fill="none" xmlns="http://www.w3.org/2000/svg">
<path d="M12.358 11V11.5H12.858H14.8362C14.9641 11.5 15.088 11.5513 15.1801 11.6445C15.2725 11.7379 15.3253 11.8656 15.3253 12C15.3253 12.1344 15.2725 12.2621 15.1801 12.3555C15.088 12.4487 14.9641 12.5 14.8362 12.5H11.8689C11.741 12.5 11.6172 12.4487 11.525 12.3555C11.4327 12.2621 11.3799 12.1344 11.3799 12V7C11.3799 6.86563 11.4327 6.73786 11.525 6.6445L11.1695 6.29289L11.525 6.6445C11.6172 6.55133 11.741 6.5 11.8689 6.5C11.9969 6.5 12.1207 6.55133 12.2128 6.6445C12.3052 6.73786 12.358 6.86563 12.358 7V11ZM6.65374 4.09962C8.19793 3.05645 10.0128 2.5 11.8689 2.5C13.1014 2.5 14.3219 2.74542 15.4609 3.2224C16.5999 3.69937 17.6351 4.39864 18.5074 5.28054C19.3797 6.16245 20.0719 7.20973 20.5443 8.36272C21.0167 9.51572 21.2598 10.7517 21.2598 12C21.2598 13.8801 20.7084 15.7176 19.6758 17.28C18.6433 18.8424 17.1762 20.0592 15.4609 20.7776C13.7456 21.4959 11.8585 21.6838 10.0379 21.3177C8.2173 20.9515 6.5442 20.0476 5.2305 18.7195C3.91674 17.3912 3.02144 15.6982 2.65868 13.8544C2.29591 12.0105 2.48214 10.0993 3.19361 8.36272C3.90505 6.62619 5.10948 5.14284 6.65374 4.09962ZM7.19297 19.0661C8.57657 20.0008 10.2038 20.5 11.8689 20.5C14.1019 20.5 16.2423 19.6031 17.8196 18.0085C19.3966 16.414 20.2817 14.2526 20.2817 12C20.2817 10.3201 19.789 8.67743 18.8653 7.27976C17.9415 5.88203 16.628 4.79179 15.0901 4.14777C13.5522 3.50373 11.8597 3.33513 10.2267 3.66353C8.5937 3.99193 7.09449 4.80238 5.91831 5.99154C4.74219 7.18063 3.94185 8.69496 3.61766 10.3428C3.29347 11.9905 3.45981 13.6985 4.09586 15.251C4.73193 16.8036 5.80944 18.1314 7.19297 19.0661Z" fill="white" stroke="#DCE0EC"/>
</svg>
