<svg width="120" height="120" viewBox="0 0 120 120" fill="none" xmlns="http://www.w3.org/2000/svg">
<g clip-path="url(#clip0_7:1087)">
<path d="M26.4335 119.999H93.5675C99.9627 119.999 105.242 114.992 105.242 108.835V27.4075C105.242 21.2514 99.9627 16.2096 93.5675 16.2096H82.9838V9.91643C82.9886 9.27662 82.7381 8.66234 82.2883 8.20871C81.8375 7.75508 81.2251 7.50086 80.5862 7.49992H71.3445C69.5206 3.14509 64.9815 -5.61677e-05 59.8763 -5.61677e-05H59.8375C54.8703 -0.0416387 50.369 2.92111 48.443 7.49992H39.2835C37.9302 7.49141 36.8169 8.56405 36.7743 9.91643V16.2096H26.4335C20.0383 16.2096 14.7583 21.2514 14.7583 27.4075V108.835C14.7583 114.992 20.0383 119.999 26.4335 119.999ZM41.613 12.3386H50.1658C51.2696 12.3386 52.2336 11.5911 52.5086 10.5213C53.3695 7.17387 56.389 4.8358 59.8451 4.83863H59.8696C63.4221 4.83863 66.5077 7.19088 67.208 10.4277C67.4481 11.5419 68.4328 12.3377 69.5725 12.3386H78.1452V24.4353H41.613V12.3386ZM19.597 27.4075C19.597 23.9193 22.7062 21.0483 26.4335 21.0483H36.7743V26.7829C36.8103 28.1504 37.915 29.2476 39.2835 29.274H80.5862C81.932 29.2381 82.9999 28.1286 82.9838 26.7829V21.0483H93.5675C97.2939 21.0483 100.403 23.9193 100.403 27.4075V108.835C100.403 112.324 97.2939 115.161 93.5675 115.161H26.4335C22.7062 115.161 19.597 112.324 19.597 108.835V27.4075Z" fill="#DCE0EC"/>
<path d="M42.1593 90.9674H77.842C79.1783 90.9674 80.2614 89.8843 80.2614 88.548C80.2614 87.2126 79.1783 86.1287 77.842 86.1287H42.1593C40.823 86.1287 39.74 87.2126 39.74 88.548C39.74 89.8843 40.823 90.9674 42.1593 90.9674Z" fill="#DCE0EC"/>
<path d="M34.901 100.645H85.0998C86.4361 100.645 87.5192 99.5617 87.5192 98.2254C87.5192 96.89 86.4361 95.806 85.0998 95.806H34.901C33.5647 95.806 32.4817 96.89 32.4817 98.2254C32.4817 99.5617 33.5647 100.645 34.901 100.645Z" fill="#DCE0EC"/>
<path d="M43.3066 65.3225H52.742V74.758C52.742 76.0943 53.8251 77.1773 55.1614 77.1773H64.8388C66.1751 77.1773 67.2582 76.0943 67.2582 74.758V65.3225H76.6937C78.03 65.3225 79.113 64.2395 79.113 62.9032V53.2257C79.113 51.8904 78.03 50.8064 76.6937 50.8064H67.2582V41.3709C67.2582 40.0355 66.1751 38.9515 64.8388 38.9515H55.1614C53.8251 38.9515 52.742 40.0355 52.742 41.3709V50.8064H43.3066C41.9702 50.8064 40.8872 51.8904 40.8872 53.2257V62.9032C40.8872 64.2395 41.9702 65.3225 43.3066 65.3225ZM45.7259 55.6451H55.1614C56.4977 55.6451 57.5808 54.562 57.5808 53.2257V43.7902H62.4195V53.2257C62.4195 54.562 63.5025 55.6451 64.8388 55.6451H74.2743V60.4838H64.8388C63.5025 60.4838 62.4195 61.5678 62.4195 62.9032V72.3386H57.5808V62.9032C57.5808 61.5678 56.4977 60.4838 55.1614 60.4838H45.7259V55.6451Z" fill="#DCE0EC"/>
</g>
<defs>
<clipPath id="clip0_7:1087">
<rect width="120" height="120" fill="white"/>
</clipPath>
</defs>
</svg>
